<?xml version="1.0" encoding="UTF-8" standalone="no"?>
<!DOCTYPE svg PUBLIC "-//W3C//DTD SVG 20010904//EN"
              "http://www.w3.org/TR/2001/REC-SVG-20010904/DTD/svg10.dtd">

<svg xmlns="http://www.w3.org/2000/svg"
     width="1.90254in" height="1.30539in"
     viewBox="0 0 137 94">
  <path id="Selection"
        fill="none" stroke="black" stroke-width="1"
        d="M 125.00,0.00
           C 127.12,0.00 130.59,-0.25 132.36,0.99
             136.67,4.01 137.89,14.31 135.99,19.00
             133.42,25.36 122.25,33.35 116.00,36.00
             120.44,40.46 125.13,44.33 125.80,51.00
             126.73,60.26 120.18,65.02 113.00,69.13
             113.00,69.13 89.00,81.25 89.00,81.25
             79.52,85.99 68.80,91.54 58.00,91.96
             43.99,92.51 38.12,85.46 38.00,72.00
             38.00,72.00 12.00,81.84 12.00,81.84
             12.00,81.84 0.00,84.00 0.00,84.00
             0.00,84.00 0.00,0.00 0.00,0.00
             0.00,0.00 125.00,0.00 125.00,0.00 Z" />
</svg>
