<?xml version="1.0" encoding="UTF-8" standalone="no"?>
<!DOCTYPE svg PUBLIC "-//W3C//DTD SVG 20010904//EN"
              "http://www.w3.org/TR/2001/REC-SVG-20010904/DTD/svg10.dtd">

<svg xmlns="http://www.w3.org/2000/svg"
     width="26.6667in" height="8.375in"
     viewBox="0 0 1920 603">
  <path id="Selection"
        fill="none" stroke="black" stroke-width="1"
        d="M 1920.00,0.00
           C 1920.00,0.00 1920.00,337.00 1920.00,337.00
             1920.00,337.00 1894.00,315.27 1894.00,315.27
             1894.00,315.27 1850.00,279.88 1850.00,279.88
             1816.70,255.34 1771.43,232.51 1732.00,219.74
             1651.38,193.65 1555.46,185.87 1471.00,186.00
             1471.00,186.00 1459.00,186.96 1459.00,186.96
             1459.00,186.96 1448.00,186.96 1448.00,186.96
             1448.00,186.96 1437.00,187.96 1437.00,187.96
             1405.63,189.33 1374.19,192.87 1343.00,196.72
             1343.00,196.72 1292.00,203.42 1292.00,203.42
             1253.11,209.46 1214.42,218.09 1176.00,226.58
             1176.00,226.58 1106.00,242.88 1106.00,242.88
             1106.00,242.88 965.00,282.42 965.00,282.42
             965.00,282.42 922.00,294.85 922.00,294.85
             922.00,294.85 883.00,304.37 883.00,304.37
             883.00,304.37 778.00,329.88 778.00,329.88
             778.00,329.88 701.00,348.20 701.00,348.20
             660.17,356.20 614.47,362.24 573.00,365.09
             573.00,365.09 542.00,367.00 542.00,367.00
             542.00,367.00 526.00,368.00 526.00,368.00
             526.00,368.00 454.00,368.00 454.00,368.00
             454.00,368.00 434.00,367.00 434.00,367.00
             434.00,367.00 424.00,366.09 424.00,366.09
             424.00,366.09 344.00,358.28 344.00,358.28
             259.37,347.84 168.54,325.26 92.00,287.25
             92.00,287.25 70.00,276.75 70.00,276.75
             70.00,276.75 22.00,251.74 22.00,251.74
             18.68,250.03 2.44,241.46 0.99,239.37
             -0.26,237.56 0.00,234.15 0.00,232.00
             0.00,232.00 0.00,0.00 0.00,0.00
             0.00,0.00 1920.00,0.00 1920.00,0.00 Z" />
</svg>
