<?xml version="1.0" encoding="UTF-8" standalone="no"?>
<!DOCTYPE svg PUBLIC "-//W3C//DTD SVG 20010904//EN"
              "http://www.w3.org/TR/2001/REC-SVG-20010904/DTD/svg10.dtd">

<svg xmlns="http://www.w3.org/2000/svg"
     width="7.26389in" height="3.51389in"
     viewBox="0 0 523 253">
  <path id="Selection #2"
        fill="none" stroke="black" stroke-width="1"
        d="M 38.00,83.00
           C 38.00,80.46 37.87,77.40 38.72,75.00
             40.85,69.06 52.10,58.69 58.00,56.70
             60.44,55.88 63.43,56.00 66.00,56.00
             66.00,56.00 223.00,56.00 223.00,56.00
             230.86,56.10 236.74,57.95 244.00,60.68
             246.74,61.72 252.44,64.72 255.00,64.48
             258.86,64.10 261.28,60.03 264.28,58.01
             267.67,55.73 271.12,56.01 275.00,56.00
             275.00,56.00 478.00,56.00 478.00,56.00
             477.98,63.73 476.68,72.75 473.94,80.00
             472.01,85.10 468.08,92.79 464.69,97.00
             459.80,103.07 450.06,112.46 443.00,115.65
             428.05,122.40 405.06,120.19 389.00,119.00
             389.00,119.00 380.00,119.00 380.00,119.00
             380.00,119.00 370.00,118.00 370.00,118.00
             369.21,127.65 365.51,140.32 361.24,149.00
             356.85,157.93 352.08,166.88 344.99,173.99
             324.49,194.52 300.70,198.04 273.00,198.00
             260.73,197.98 244.95,193.75 233.00,190.42
             233.00,190.42 210.00,183.14 210.00,183.14
             210.00,183.14 159.00,162.20 159.00,162.20
             155.15,160.66 141.20,154.44 138.00,154.76
             134.64,155.09 131.47,158.58 129.00,160.72
             129.00,160.72 108.00,180.00 108.00,180.00
             108.00,180.00 83.00,202.16 83.00,202.16
             69.33,214.37 54.19,228.34 38.00,237.00
             38.00,237.00 38.00,83.00 38.00,83.00 Z" />
</svg>
